<svg xmlns="http://www.w3.org/2000/svg" viewBox="0 0 251.95 72.08"><title>Asset 1</title><g id="Layer_2" data-name="Layer 2"><g id="Negro"><path d="M13.89,50.71a25.43,25.43,0,0,1-10-9.44A26,26,0,0,1,.31,27.61,26,26,0,0,1,3.93,14a25.36,25.36,0,0,1,10-9.44A29.56,29.56,0,0,1,28.13,1.11a29.73,29.73,0,0,1,12,2.35,24,24,0,0,1,9,6.73l-7.61,7a16.38,16.38,0,0,0-12.89-6,17.12,17.12,0,0,0-8.49,2.08,14.81,14.81,0,0,0-5.82,5.82,17.12,17.12,0,0,0-2.09,8.49,17.13,17.13,0,0,0,2.09,8.5,14.81,14.81,0,0,0,5.82,5.82A17.12,17.12,0,0,0,28.71,44,16.3,16.3,0,0,0,41.6,37.94l7.61,7a23.71,23.71,0,0,1-9.08,6.81,30.16,30.16,0,0,1-12.08,2.35A29.41,29.41,0,0,1,13.89,50.71Z"/><path d="M65.74,11.86V22.42H86.87V33H65.74V43.55h31.7V54.12H55.18V1.29H97.44V11.86Z"/><path d="M193.38,22.28a21.27,21.27,0,0,1-8.55,17L193.31,54H181.09l-6.18-10.7a17.26,17.26,0,0,1-2.73.21H161.62V54.12H151.05V1.29h21.13a21.17,21.17,0,0,1,21.13,21.13ZM179.51,30l.22-.22a10.57,10.57,0,0,0-7.48-18H161.69V32.84h10.56A10.39,10.39,0,0,0,179.51,30Z"/><path d="M225.51,1.22a26.45,26.45,0,1,1-26.45,26.45A26.47,26.47,0,0,1,225.51,1.22Zm-6.26,11.86a15.74,15.74,0,0,0-8.41,8.41,16.26,16.26,0,0,0,0,12.36,15.74,15.74,0,0,0,8.41,8.41,16.26,16.26,0,0,0,12.36,0A15.65,15.65,0,0,0,240,33.85a16.26,16.26,0,0,0,0-12.36,15.65,15.65,0,0,0-8.41-8.41,16.26,16.26,0,0,0-12.36,0Z"/><circle cx="139.16" cy="6.46" r="6.46"/><polygon points="129.42 54.12 129.42 1.29 102.74 1.29 102.74 11.86 118.62 11.86 118.62 54.12 129.42 54.12"/><path d="M.94,65.84l1.49,3.82L4,65.56l1.5,4.09L7,65.83H8L5.44,71.9,4,67.86,2.44,71.92,0,65.85Z" style="fill:#030303"/><path d="M15,68.64a2.8,2.8,0,0,1,.88-2.08,3,3,0,0,1,5.09,2.09,2.83,2.83,0,0,1-.88,2.1,3,3,0,0,1-4.12.1A2.78,2.78,0,0,1,15,68.64Zm.87,0a2.13,2.13,0,0,0,2.1,2.17,2,2,0,0,0,1.51-.63,2.2,2.2,0,0,0,0-3.06,2.12,2.12,0,0,0-3.61,1.52Z" style="fill:#030303"/><path d="M30.77,69l1.78,2.43H31.49l-1.63-2.33H29.7v2.34h-.87V65.77h1a2.53,2.53,0,0,1,1.63.42A1.56,1.56,0,0,1,32,67.44a1.63,1.63,0,0,1-.34,1A1.55,1.55,0,0,1,30.77,69Zm-1.07-.65H30c.82,0,1.22-.32,1.22-.94s-.4-.87-1.19-.87h-.31Z" style="fill:#030303"/><path d="M41.07,65.74v4.9h1.68v.81H40.22l0-5.71Z" style="fill:#030303"/><path d="M50.39,71.42V65.71h1.2a4.17,4.17,0,0,1,1.36.17,2.44,2.44,0,0,1,1,.56,3,3,0,0,1,0,4.25,2.78,2.78,0,0,1-1,.57,4.6,4.6,0,0,1-1.34.16Zm.86-.81h.39a3,3,0,0,0,1-.13,1.89,1.89,0,0,0,.69-.41,1.93,1.93,0,0,0,.63-1.51A2,2,0,0,0,53.3,67a2.37,2.37,0,0,0-1.67-.52h-.39Z" style="fill:#030303"/><path d="M76.07,66v1a2.42,2.42,0,0,0-1.55-.62A2,2,0,0,0,73,67a2.14,2.14,0,0,0-.6,1.54A2.08,2.08,0,0,0,73.05,70a2,2,0,0,0,1.49.61,1.79,1.79,0,0,0,.77-.15,1.51,1.51,0,0,0,.37-.2,3.2,3.2,0,0,0,.4-.3v1a3.09,3.09,0,0,1-1.55.42,2.86,2.86,0,0,1-2.09-.85,2.8,2.8,0,0,1-.87-2.07,2.94,2.94,0,0,1,.72-2,2.85,2.85,0,0,1,2.29-1A2.82,2.82,0,0,1,76.07,66Z" style="fill:#030303"/><path d="M87.12,66.42H84.84V67.8h2.22v.81H84.84v1.91h2.28v.81H84l0-5.71h3.15Z" style="fill:#030303"/><path d="M96.65,66.4v4.9H95.8V66.4H94.47v-.81H98v.81Z" style="fill:#030303"/><path d="M107.48,68.84l1.78,2.42H108.2l-1.63-2.34h-.16v2.34h-.86l0-5.71h1a2.58,2.58,0,0,1,1.64.42,1.65,1.65,0,0,1-.71,2.86Zm-1.07-.66h.27c.82,0,1.23-.31,1.22-.94s-.39-.87-1.19-.87h-.31Z" style="fill:#030303"/><path d="M116.51,68.36a2.8,2.8,0,0,1,.88-2.07,3,3,0,0,1,5.09,2.09,2.8,2.8,0,0,1-.88,2.09,2.9,2.9,0,0,1-2.13.87,3,3,0,0,1-2-.76A2.81,2.81,0,0,1,116.51,68.36Zm.87,0a2.06,2.06,0,0,0,.64,1.56,2,2,0,0,0,1.46.6,2.07,2.07,0,0,0,1.52-.62,2.22,2.22,0,0,0,0-3.06,2.12,2.12,0,0,0-3,0A2,2,0,0,0,117.38,68.37Z" style="fill:#030303"/><path d="M143.74,65.77v1a2.38,2.38,0,0,0-1.55-.62,1.93,1.93,0,0,0-1.48.64,2.14,2.14,0,0,0-.6,1.53,2.07,2.07,0,0,0,.61,1.52,2,2,0,0,0,1.49.61,1.79,1.79,0,0,0,.77-.15,1.94,1.94,0,0,0,.37-.2,4.16,4.16,0,0,0,.4-.3v1a3.09,3.09,0,0,1-1.55.42,2.88,2.88,0,0,1-2.1-.85,2.82,2.82,0,0,1-.86-2.07,2.93,2.93,0,0,1,.71-2,2.87,2.87,0,0,1,2.3-1A2.76,2.76,0,0,1,143.74,65.77Z" style="fill:#030303"/><path d="M154.8,66.24h-2.29v1.37h2.22v.81h-2.22v1.91h2.29v.81h-3.15V65.44h3.15Z" style="fill:#030303"/><path d="M162.76,71.12V65l4.17,4.35v-4h.86l0,6.06-4.18-4.34v4Z" style="fill:#030303"/><path d="M177.54,66.18v4.9h-.86l0-4.9h-1.31v-.81h3.48v.81Z" style="fill:#030303"/><path d="M189.58,66.15h-2.29v1.37h2.22v.81H187.3v1.91h2.29v.81h-3.15V65.35h3.15Z" style="fill:#030303"/><path d="M199.47,68.59,201.24,71h-1.05l-1.64-2.33h-.15V71h-.86V65.32h1a2.41,2.41,0,0,1,1.63.42,1.55,1.55,0,0,1,.56,1.24,1.63,1.63,0,0,1-.34,1A1.58,1.58,0,0,1,199.47,68.59Zm-1.07-.65h.27c.81,0,1.22-.32,1.22-.94s-.4-.88-1.19-.88h-.31Z" style="fill:#030303"/><path d="M212.79,64.88h.64l0,7.19h-.65Z" style="fill:#030303"/><path d="M222.23,70.12a1.9,1.9,0,0,0,1.29.58,1,1,0,0,0,1.09-1c0-.66-.58-1-1.24-1H223l-.17-.4L224,67a4.8,4.8,0,0,1,.33-.35v0a2.71,2.71,0,0,1-.45,0h-1.81V66h3.19v.48l-1.44,1.68a1.61,1.61,0,0,1,1.57,1.56,1.74,1.74,0,0,1-1.81,1.72,2.44,2.44,0,0,1-1.74-.72Z" style="fill:#030303"/><path d="M234.09,68.86c0-1.37.74-3,2.4-3a2.38,2.38,0,0,1,1,.22l-.24.64a1.9,1.9,0,0,0-.77-.17c-1,0-1.49.91-1.6,1.8h0a1.54,1.54,0,0,1,1.18-.51,1.78,1.78,0,0,1,0,3.55C235,71.38,234.1,70.38,234.09,68.86Zm3,.73a1.06,1.06,0,0,0-1.1-1.13c-.61,0-1.09.37-1.09.76a1.43,1.43,0,0,0,1.21,1.47A1,1,0,0,0,237.07,69.59Z" style="fill:#030303"/><path d="M249.12,65.82a2.69,2.69,0,0,1,2.75,2.72,2.75,2.75,0,1,1-2.75-2.72Zm0,4.84a2,2,0,0,0,2-2.12,2,2,0,1,0-3.94,0A2,2,0,0,0,249.14,70.66Z" style="fill:#030303"/></g></g></svg>